<svg width="56" height="56" fill="none" xmlns="http://www.w3.org/2000/svg"><g clip-path="url(#clip0_140_6895)"><path d="M56 28.171C56 12.611 43.463-.004 28-.004 12.53 0-.007 12.61-.007 28.175c0 14.06 10.24 25.714 23.625 27.828V36.316h-7.105v-8.141h7.112v-6.213c0-7.06 4.182-10.958 10.577-10.958 3.066 0 6.268.55 6.268.55v6.93h-3.53c-3.476 0-4.56 2.173-4.56 4.402v5.285h7.762l-1.239 8.141h-6.527V56C45.759 53.886 56 42.23 56 28.17z" fill="#fff"/></g><defs><clipPath id="clip0_140_6895"><path fill="#fff" d="M0 0h56v56H0z"/></clipPath></defs></svg>