<svg width="60" height="60" fill="none" xmlns="http://www.w3.org/2000/svg"><path d="M39 30a9 9 0 01-18 0c0-.513.055-1.014.148-1.5H18v11.991c0 .834.675 1.51 1.509 1.51h20.985A1.51 1.51 0 0042 40.49V28.5h-3.147c.093.485.147.986.147 1.5zm-9 6a6.004 6.004 0 006-6.003A6.001 6.001 0 1030 36zm7.2-12.3h3.598a.904.904 0 00.903-.9v-3.597a.903.903 0 00-.903-.903H37.2a.903.903 0 00-.903.903V22.8c.003.495.408.9.903.9zM30 1.2a28.8 28.8 0 100 57.6 28.8 28.8 0 000-57.6zm15 40.467C45 43.5 43.5 45 41.669 45H18.334A3.343 3.343 0 0115 41.667V18.333C15 16.5 16.5 15 18.334 15h23.334C43.5 15 45 16.5 45 18.333v23.334z" fill="#fff"/></svg>