<svg width="56" height="56" fill="none" xmlns="http://www.w3.org/2000/svg"><path d="M28 .875C13.02.875.875 13.021.875 28 .875 42.98 13.021 55.125 28 55.125c14.98 0 27.125-12.146 27.125-27.125C55.125 13.02 42.979.875 28 .875zm13.036 20.447c.018.284.018.58.018.872 0 8.888-6.77 19.126-19.139 19.126a19.08 19.08 0 01-10.33-3.015c.546.06 1.066.085 1.623.085a13.49 13.49 0 008.35-2.87 6.726 6.726 0 01-6.285-4.662c1.035.151 1.968.151 3.033-.121a6.72 6.72 0 01-5.382-6.6v-.085c.89.503 1.937.812 3.033.854a6.73 6.73 0 01-2.997-5.595c0-1.253.327-2.397.914-3.39a19.09 19.09 0 0013.866 7.03c-.95-4.572 2.464-8.271 6.569-8.271 1.938 0 3.681.811 4.91 2.119a13.282 13.282 0 004.269-1.617 6.693 6.693 0 01-2.955 3.7 13.3 13.3 0 003.875-1.048 14.095 14.095 0 01-3.372 3.488z" fill="#fff"/></svg>